<svg xmlns="http://www.w3.org/2000/svg" viewBox="0 0 32 32" width="32" height="32">
  <defs>
    <linearGradient id="bgGradient" x1="0%" y1="0%" x2="100%" y2="100%">
      <stop offset="0%" style="stop-color:#9333ea;stop-opacity:1" />
      <stop offset="100%" style="stop-color:#14b8a6;stop-opacity:1" />
    </linearGradient>
  </defs>
  
  <!-- Background rounded rectangle -->
  <rect width="32" height="32" rx="8" ry="8" fill="url(#bgGradient)" />
  
  <!-- Brain icon from Lucide React - exact SVG path -->
  <g transform="translate(6, 6) scale(0.67)" fill="none" stroke="white" stroke-width="2" stroke-linecap="round" stroke-linejoin="round">
    <path d="M12 5a3 3 0 0 0-3 3 3 3 0 0 0-3 3c0 2 1.5 3 1.5 3s1.5-1 1.5-3a3 3 0 0 0 3-3 3 3 0 0 0 3-3"/>
    <path d="M12 5a3 3 0 0 1 3 3 3 3 0 0 1 3 3c0 2-1.5 3-1.5 3s-1.5-1-1.5-3a3 3 0 0 1-3-3 3 3 0 0 1-3-3"/>
    <path d="M9 14a3 3 0 0 0-3-3 3 3 0 0 0-3 3c0 2 1.5 3 1.5 3s1.5-1 1.5-3"/>
    <path d="M15 14a3 3 0 0 1 3-3 3 3 0 0 1 3 3c0 2-1.5 3-1.5 3s-1.5-1-1.5-3"/>
    <path d="M9 19a3 3 0 0 1-3-3 3 3 0 0 1-3-3c0-2 1.5-3 1.5-3s1.5 1 1.5 3a3 3 0 0 1 3 3 3 3 0 0 1 3 3"/>
    <path d="M15 19a3 3 0 0 0 3-3 3 3 0 0 0 3-3c0-2-1.5-3-1.5-3s-1.5 1-1.5 3a3 3 0 0 0-3 3 3 3 0 0 0-3 3"/>
  </g>
</svg>
